<mxfile host="app.diagrams.net" agent="Mozilla/5.0 (Windows NT 10.0; Win64; x64) AppleWebKit/537.36 (KHTML, like Gecko) Chrome/130.0.0.0 Safari/537.36" version="24.8.0">
  <diagram name="Page-1" id="822b0af5-4adb-64df-f703-e8dfc1f81529">
    <mxGraphModel dx="1094" dy="678" grid="1" gridSize="10" guides="1" tooltips="1" connect="1" arrows="1" fold="1" page="1" pageScale="1" pageWidth="1100" pageHeight="850" background="none" math="0" shadow="0">
      <root>
        <mxCell id="0" />
        <mxCell id="1" parent="0" />
        <mxCell id="XOzi0zgnYEqHRwpfXag4-5" value="" style="group;fillColor=#dae8fc;strokeColor=#6c8ebf;" vertex="1" connectable="0" parent="1">
          <mxGeometry x="80" y="210" width="60" height="80" as="geometry" />
        </mxCell>
        <mxCell id="XOzi0zgnYEqHRwpfXag4-1" value="" style="sketch=0;points=[[0.015,0.015,0],[0.985,0.015,0],[0.985,0.985,0],[0.015,0.985,0],[0.25,0,0],[0.5,0,0],[0.75,0,0],[1,0.25,0],[1,0.5,0],[1,0.75,0],[0.75,1,0],[0.5,1,0],[0.25,1,0],[0,0.75,0],[0,0.5,0],[0,0.25,0]];verticalLabelPosition=bottom;html=1;verticalAlign=top;aspect=fixed;align=center;pointerEvents=1;shape=mxgraph.cisco19.rect;prIcon=ise;fillColor=#FAFAFA;strokeColor=#005073;" vertex="1" parent="XOzi0zgnYEqHRwpfXag4-5">
          <mxGeometry x="5" y="30" width="50" height="50" as="geometry" />
        </mxCell>
        <mxCell id="XOzi0zgnYEqHRwpfXag4-4" value="&lt;b&gt;Carderock&lt;/b&gt;" style="text;html=1;align=center;verticalAlign=middle;whiteSpace=wrap;rounded=0;" vertex="1" parent="XOzi0zgnYEqHRwpfXag4-5">
          <mxGeometry width="60" height="30" as="geometry" />
        </mxCell>
        <mxCell id="XOzi0zgnYEqHRwpfXag4-6" value="" style="group;fillColor=#d5e8d4;strokeColor=#82b366;" vertex="1" connectable="0" parent="1">
          <mxGeometry x="80" y="70" width="60" height="80" as="geometry" />
        </mxCell>
        <mxCell id="XOzi0zgnYEqHRwpfXag4-7" value="" style="sketch=0;points=[[0.015,0.015,0],[0.985,0.015,0],[0.985,0.985,0],[0.015,0.985,0],[0.25,0,0],[0.5,0,0],[0.75,0,0],[1,0.25,0],[1,0.5,0],[1,0.75,0],[0.75,1,0],[0.5,1,0],[0.25,1,0],[0,0.75,0],[0,0.5,0],[0,0.25,0]];verticalLabelPosition=bottom;html=1;verticalAlign=top;aspect=fixed;align=center;pointerEvents=1;shape=mxgraph.cisco19.rect;prIcon=ise;fillColor=#FAFAFA;strokeColor=#005073;" vertex="1" parent="XOzi0zgnYEqHRwpfXag4-6">
          <mxGeometry x="5" y="30" width="50" height="50" as="geometry" />
        </mxCell>
        <mxCell id="XOzi0zgnYEqHRwpfXag4-8" value="&lt;b&gt;Dahlgren&lt;/b&gt;" style="text;html=1;align=center;verticalAlign=middle;whiteSpace=wrap;rounded=0;" vertex="1" parent="XOzi0zgnYEqHRwpfXag4-6">
          <mxGeometry width="60" height="30" as="geometry" />
        </mxCell>
        <mxCell id="XOzi0zgnYEqHRwpfXag4-10" value="" style="group;fillColor=#dae8fc;strokeColor=#6c8ebf;" vertex="1" connectable="0" parent="1">
          <mxGeometry x="740" y="130" width="60" height="90" as="geometry" />
        </mxCell>
        <mxCell id="XOzi0zgnYEqHRwpfXag4-3" value="" style="points=[[0.35,0,0],[0.98,0.51,0],[1,0.71,0],[0.67,1,0],[0,0.795,0],[0,0.65,0]];verticalLabelPosition=bottom;sketch=0;html=1;verticalAlign=top;aspect=fixed;align=center;pointerEvents=1;shape=mxgraph.cisco19.user;fillColor=#005073;strokeColor=none;" vertex="1" parent="XOzi0zgnYEqHRwpfXag4-10">
          <mxGeometry x="5" y="40" width="50" height="50" as="geometry" />
        </mxCell>
        <mxCell id="XOzi0zgnYEqHRwpfXag4-9" value="&lt;b&gt;Carderock&lt;/b&gt;&lt;div&gt;&lt;b&gt;User&lt;/b&gt;&lt;/div&gt;" style="text;html=1;align=center;verticalAlign=middle;whiteSpace=wrap;rounded=0;" vertex="1" parent="XOzi0zgnYEqHRwpfXag4-10">
          <mxGeometry width="60" height="30" as="geometry" />
        </mxCell>
        <mxCell id="XOzi0zgnYEqHRwpfXag4-11" value="&lt;div&gt;Standalone&lt;/div&gt;X.X.X.180" style="text;html=1;align=center;verticalAlign=middle;whiteSpace=wrap;rounded=0;" vertex="1" parent="1">
          <mxGeometry x="70" y="290" width="85" height="30" as="geometry" />
        </mxCell>
        <mxCell id="XOzi0zgnYEqHRwpfXag4-12" value="&lt;b&gt;Firewall&lt;/b&gt;" style="image;aspect=fixed;perimeter=ellipsePerimeter;html=1;align=center;shadow=0;dashed=0;spacingTop=3;image=img/lib/active_directory/firewall.svg;" vertex="1" parent="1">
          <mxGeometry x="310" y="150" width="30.5" height="50" as="geometry" />
        </mxCell>
        <mxCell id="XOzi0zgnYEqHRwpfXag4-18" style="edgeStyle=orthogonalEdgeStyle;rounded=0;orthogonalLoop=1;jettySize=auto;html=1;exitX=1;exitY=0.5;exitDx=0;exitDy=0;exitPerimeter=0;entryX=0;entryY=0.5;entryDx=0;entryDy=0;" edge="1" parent="1" source="XOzi0zgnYEqHRwpfXag4-13" target="XOzi0zgnYEqHRwpfXag4-14">
          <mxGeometry relative="1" as="geometry" />
        </mxCell>
        <mxCell id="XOzi0zgnYEqHRwpfXag4-13" value="&lt;b&gt;BIG-IP&lt;/b&gt;" style="sketch=0;points=[[0.015,0.015,0],[0.985,0.015,0],[0.985,0.985,0],[0.015,0.985,0],[0.25,0,0],[0.5,0,0],[0.75,0,0],[1,0.25,0],[1,0.5,0],[1,0.75,0],[0.75,1,0],[0.5,1,0],[0.25,1,0],[0,0.75,0],[0,0.5,0],[0,0.25,0]];verticalLabelPosition=bottom;html=1;verticalAlign=top;aspect=fixed;align=center;pointerEvents=1;shape=mxgraph.cisco19.rect;prIcon=web_application_firewall;fillColor=#FAFAFA;strokeColor=#005073;" vertex="1" parent="1">
          <mxGeometry x="400" y="150" width="64" height="50" as="geometry" />
        </mxCell>
        <mxCell id="XOzi0zgnYEqHRwpfXag4-19" style="edgeStyle=orthogonalEdgeStyle;rounded=0;orthogonalLoop=1;jettySize=auto;html=1;exitX=1;exitY=0.5;exitDx=0;exitDy=0;" edge="1" parent="1" source="XOzi0zgnYEqHRwpfXag4-14">
          <mxGeometry relative="1" as="geometry">
            <mxPoint x="740" y="174.9411764705883" as="targetPoint" />
          </mxGeometry>
        </mxCell>
        <mxCell id="XOzi0zgnYEqHRwpfXag4-14" value="&lt;b&gt;Carderock&lt;/b&gt;&lt;div&gt;&lt;b&gt;Network&lt;/b&gt;&lt;/div&gt;" style="rounded=1;whiteSpace=wrap;html=1;" vertex="1" parent="1">
          <mxGeometry x="550" y="145" width="120" height="60" as="geometry" />
        </mxCell>
        <mxCell id="XOzi0zgnYEqHRwpfXag4-16" style="edgeStyle=entityRelationEdgeStyle;rounded=0;orthogonalLoop=1;jettySize=auto;html=1;exitX=1;exitY=1;exitDx=0;exitDy=0;entryX=0;entryY=0.5;entryDx=0;entryDy=0;" edge="1" parent="1" source="XOzi0zgnYEqHRwpfXag4-4" target="XOzi0zgnYEqHRwpfXag4-12">
          <mxGeometry relative="1" as="geometry" />
        </mxCell>
        <mxCell id="XOzi0zgnYEqHRwpfXag4-17" style="edgeStyle=orthogonalEdgeStyle;rounded=0;orthogonalLoop=1;jettySize=auto;html=1;exitX=1;exitY=0.5;exitDx=0;exitDy=0;entryX=0;entryY=0.5;entryDx=0;entryDy=0;entryPerimeter=0;" edge="1" parent="1" source="XOzi0zgnYEqHRwpfXag4-12" target="XOzi0zgnYEqHRwpfXag4-13">
          <mxGeometry relative="1" as="geometry" />
        </mxCell>
      </root>
    </mxGraphModel>
  </diagram>
</mxfile>
